<svg width="13" height="21" viewBox="0 0 13 21" fill="none" xmlns="http://www.w3.org/2000/svg">
<path d="M11.7491 0.0043694L9.02593 0C5.96651 0 3.98937 2.02849 3.98937 5.16813V7.55098H1.25132C1.01472 7.55098 0.82312 7.7428 0.82312 7.9794V11.4319C0.82312 11.6685 1.01494 11.8601 1.25132 11.8601H3.98937V20.5718C3.98937 20.8084 4.18097 21 4.41757 21H7.98996C8.22656 21 8.41816 20.8082 8.41816 20.5718V11.8601H11.6196C11.8562 11.8601 12.0478 11.6685 12.0478 11.4319L12.0491 7.9794C12.0491 7.8658 12.0039 7.757 11.9237 7.6766C11.8435 7.5962 11.7343 7.55098 11.6207 7.55098H8.41816V5.53101C8.41816 4.56013 8.64951 4.06726 9.91422 4.06726L11.7487 4.0666C11.9851 4.0666 12.1767 3.87479 12.1767 3.6384V0.432571C12.1767 0.196405 11.9853 0.00480634 11.7491 0.0043694Z" fill="#ffffff"/>
</svg>
