<svg width="21" height="19" viewBox="0 0 21 19" fill="none" xmlns="http://www.w3.org/2000/svg">
<path d="M20.666 2.79795C20.1994 3.00485 19.715 3.16808 19.218 3.28625C19.7657 2.76585 20.1774 2.11494 20.4097 1.38841C20.476 1.181 20.2507 1.00165 20.0635 1.1127C19.372 1.52281 18.6273 1.83047 17.8498 2.02724C17.8047 2.03865 17.7582 2.04444 17.7115 2.04444C17.5699 2.04444 17.4322 1.99186 17.3239 1.89642C16.4967 1.16738 15.4328 0.765869 14.3283 0.765869C13.8503 0.765869 13.3678 0.840365 12.894 0.98731C11.4259 1.44263 10.2932 2.65357 9.93787 4.14759C9.80454 4.70797 9.76845 5.26887 9.8305 5.81467C9.83762 5.87739 9.80797 5.92116 9.78969 5.94169C9.75759 5.97769 9.71208 5.99832 9.66482 5.99832C9.65954 5.99832 9.65412 5.99806 9.64874 5.99755C6.43532 5.699 3.5376 4.15086 1.48934 1.63837C1.38489 1.51022 1.1846 1.52594 1.10135 1.66873C0.700246 2.35686 0.488277 3.14391 0.488277 3.94478C0.488277 5.17215 0.981385 6.32882 1.83791 7.17203C1.47772 7.08663 1.1291 6.95213 0.805257 6.77226C0.648585 6.68522 0.455816 6.79709 0.453615 6.97629C0.431189 8.79963 1.49871 10.4221 3.09789 11.1526C3.06569 11.1534 3.03348 11.1538 3.00123 11.1538C2.74774 11.1538 2.49107 11.1293 2.23845 11.081C2.06201 11.0473 1.91379 11.2147 1.96857 11.3858C2.48764 13.0063 3.88295 14.2008 5.55268 14.472C4.1669 15.4023 2.55313 15.893 0.873507 15.893L0.349883 15.8926C0.188552 15.8926 0.0521038 15.9978 0.0109901 16.1541C-0.0295092 16.308 0.0450894 16.4703 0.182664 16.5504C2.07533 17.6518 4.23418 18.234 6.42677 18.234C8.34601 18.234 10.1413 17.8531 11.7628 17.102C13.2493 16.4134 14.5629 15.4291 15.6671 14.1764C16.6957 13.0094 17.5 11.6623 18.0577 10.1725C18.5893 8.75232 18.8703 7.237 18.8703 5.79029V5.72138C18.8702 5.48908 18.9753 5.27051 19.1586 5.12172C19.8541 4.55698 20.4598 3.8922 20.9588 3.14586C21.0905 2.94879 20.8828 2.7018 20.666 2.79795Z"/>
</svg>
